<svg xmlns="http://www.w3.org/2000/svg" viewBox="0 0 24 24" shape-rendering="crispEdges">
<path fill="#b78a14" d="M3 0h1v1H3zM20 0h1v1H20zM4 1h5v1H4zM16 1h5v1H16zM0 3h2v1H0zM22 3h1v1H22zM23 6h1v1H23zM15 8h1v1H15zM21 13h1v1H21zM20 14h1v1H20zM12 18h1v1H12zM15 19h1v1H15zM7 20h1v1H7zM9 20h3v1H9zM14 20h2v1H14z"/>
<path fill="#a87c00" d="M4 0h3v1H4zM10 4h1v1H10zM1 5h1v1H1zM10 5h1v1H10zM1 6h1v1H1zM10 6h2v1H10zM13 6h1v1H13zM1 7h1v1H1zM12 7h1v1H12zM10 10h4v1H10zM21 10h1v1H21zM10 11h1v1H10zM12 11h2v1H12zM9 12h1v1H9zM19 12h1v1H19zM9 13h3v1H9zM19 13h1v1H19zM12 14h1v1H12zM17 14h1v1H17zM14 16h2v1H14zM12 17h1v1H12zM11 19h1v1H11z"/>
<path fill="#ad7e03" d="M7 0h2v1H7zM16 0h4v1H16zM2 2h1v1H2zM9 2h1v1H9zM14 2h1v1H14zM21 2h1v1H21zM10 3h4v1H10zM23 3h1v1H23zM0 4h2v1H0zM11 4h3v1H11zM22 4h2v1H22zM0 5h1v1H0zM11 5h3v1H11zM22 5h2v1H22zM0 6h1v1H0zM12 6h1v1H12zM22 6h1v1H22zM0 7h1v1H0zM13 7h4v1H13zM14 8h1v1H14zM14 9h1v1H14zM11 11h1v1H11zM21 11h1v1H21zM10 12h2v1H10zM20 12h2v1H20zM20 13h1v1H20zM13 14h1v1H13zM18 14h2v1H18zM14 15h2v1H14zM17 15h1v1H17zM16 16h1v1H16zM16 17h1v1H16zM13 18h1v1H13zM10 19h1v1H10z"/>
<path fill="#fdf9a8" d="M15 0h1v1H15zM2 1h1v1H2zM9 1h1v1H9zM14 1h1v1H14zM21 1h1v1H21zM6 3h1v1H6zM6 4h2v1H6zM6 5h2v1H6zM7 6h1v1H7zM4 10h1v1H4zM19 10h2v1H19zM4 11h1v1H4zM19 11h2v1H19zM6 12h1v1H6zM17 12h2v1H17zM17 13h2v1H17zM7 14h1v1H7zM16 14h1v1H16zM9 16h1v1H9zM10 17h2v1H10z"/>
<path fill="#d6b112" d="M3 1h1v1H3zM15 2h1v1H15zM12 8h2v1H12zM15 9h1v1H15zM3 14h1v1H3zM12 15h1v1H12zM8 16h1v1H8zM15 17h1v1H15zM7 18h2v1H7zM15 18h1v1H15z"/>
<path fill="#fef873" d="M15 1h1v1H15zM5 3h1v1H5zM7 3h2v1H7zM5 4h1v1H5zM8 4h1v1H8zM5 5h1v1H5zM8 5h1v1H8zM5 6h2v1H5zM8 6h1v1H8zM3 10h1v1H3zM3 11h1v1H3zM5 12h1v1H5zM5 13h2v1H5zM8 14h1v1H8zM9 15h1v1H9zM10 18h2v1H10z"/>
<path fill="#edcc06" d="M3 2h1v1H3zM2 3h2v1H2zM21 3h1v1H21zM2 4h2v1H2zM21 4h1v1H21zM14 5h2v1H14zM14 6h2v1H14zM11 8h1v1H11zM16 8h1v1H16zM10 9h4v1H10zM2 11h1v1H2zM2 12h3v1H2zM12 12h4v1H12zM3 13h2v1H3zM12 13h4v1H12zM4 14h3v1H4zM9 14h3v1H9zM14 14h1v1H14zM6 15h1v1H6zM10 15h2v1H10zM13 15h1v1H13zM6 16h2v1H6zM11 16h3v1H11zM7 17h3v1H7zM14 17h1v1H14zM9 18h1v1H9zM14 18h1v1H14zM9 19h1v1H9zM12 19h3v1H12zM12 20h2v1H12zM11 21h3v1H11z"/>
<path fill="#fee602" d="M4 2h4v1H4zM16 2h1v1H16zM4 3h1v1H4zM4 4h1v1H4zM9 4h1v1H9zM14 4h1v1H14zM16 4h4v1H16zM3 5h2v1H3zM9 5h1v1H9zM16 5h1v1H16zM19 5h3v1H19zM3 6h2v1H3zM17 6h5v1H17zM3 7h1v1H3zM10 7h1v1H10zM19 7h2v1H19zM3 8h1v1H3zM9 8h2v1H9zM18 8h3v1H18zM3 9h2v1H3zM16 9h1v1H16zM19 9h1v1H19zM17 10h1v1H17zM15 11h1v1H15zM7 12h1v1H7z"/>
<path fill="#fde713" d="M8 2h1v1H8zM20 2h1v1H20zM9 3h1v1H9zM14 3h1v1H14zM20 4h1v1H20zM2 5h1v1H2zM2 6h1v1H2zM16 6h1v1H16zM2 7h1v1H2zM11 7h1v1H11zM17 7h2v1H17zM21 7h1v1H21zM2 8h1v1H2zM21 8h1v1H21zM2 9h1v1H2zM21 9h1v1H21zM14 10h2v1H14zM18 10h1v1H18zM8 11h2v1H8zM14 11h1v1H14zM16 11h2v1H16zM8 12h1v1H8z"/>
<path fill="#fee902" d="M17 2h3v1H17zM15 3h6v1H15zM15 4h1v1H15zM17 5h2v1H17zM9 6h1v1H9zM4 7h6v1H4zM4 8h5v1H4zM17 8h1v1H17zM5 9h5v1H5zM17 9h2v1H17zM20 9h1v1H20zM6 10h4v1H6zM16 10h1v1H16zM7 11h1v1H7zM16 12h1v1H16z"/>
<path fill="#fefefd" d="M22 2h1v1H22zM22 14h1v1H22z"/>
<path fill="#723604" d="M22 7h2v1H22zM22 8h2v1H22zM0 9h2v1H0zM22 9h2v1H22zM0 10h2v1H0zM22 10h2v1H22zM0 11h2v1H0zM22 11h2v1H22zM0 12h2v1H0zM22 12h2v1H22zM0 13h2v1H0zM22 13h2v1H22zM2 14h1v1H2zM21 14h1v1H21zM4 15h1v1H4zM19 15h2v1H19zM4 16h1v1H4zM19 16h2v1H19zM5 17h2v1H5zM17 17h2v1H17zM7 19h2v1H7zM16 19h1v1H16zM9 21h1v1H9zM14 21h1v1H14zM10 22h4v1H10zM10 23h4v1H10z"/>
<path fill="#8a580e" d="M0 8h2v1H0zM3 15h1v1H3zM3 16h1v1H3z"/>
<path fill="#f1d338" d="M2 10h1v1H2zM5 10h1v1H5zM5 11h2v1H5zM18 11h1v1H18zM2 13h1v1H2zM7 13h2v1H7zM16 13h1v1H16zM15 14h1v1H15zM5 15h1v1H5zM7 15h2v1H7zM5 16h1v1H5zM10 16h1v1H10zM10 21h1v1H10z"/>
<path fill="#ac7e13" d="M16 15h1v1H16zM18 15h1v1H18zM17 16h2v1H17zM13 17h1v1H13zM5 18h2v1H5zM16 18h3v1H16zM8 20h1v1H8zM16 20h1v1H16zM15 21h1v1H15z"/>
</svg>
