<svg xmlns="http://www.w3.org/2000/svg" viewBox="0 0 24 24" shape-rendering="crispEdges">
<path fill="#c36a1e" d="M2 0h1v1H2zM21 0h1v1H21zM15 1h4v1H15zM23 2h1v2H23zM0 4h1v6H0zM8 8h1v2H8zM0 16h1v1H0zM23 16h1v1H23z"/>
<path fill="#b55918" d="M3 0h18v1H3zM22 2h1v1H22zM0 3h1v1H0zM23 4h1v12H23zM8 7h1v1H8zM0 10h1v6H0zM2 22h1v1H2zM21 22h1v1H21z"/>
<path fill="#d8870f" d="M2 1h13v1H2zM19 1h3v1H19zM15 2h4v1H15zM5 4h3v1H5zM14 4h1v3H14zM19 4h2v1H19zM3 5h2v2H3zM9 5h1v2H9zM14 8h1v1H14zM15 10h2v1H15zM2 21h1v1H2zM21 21h1v1H21z"/>
<path fill="#ad6213" d="M0 2h1v1H0zM22 3h1v11H22zM8 15h2v1H8zM15 15h2v1H15zM3 22h18v1H3z"/>
<path fill="#995313" d="M1 2h1v14H1zM15 8h1v2H15zM5 9h1v1H5zM18 9h1v1H18zM17 13h2v1H17zM22 14h1v3H22zM7 15h1v1H7z"/>
<path fill="#f79708" d="M2 2h1v1H2zM14 3h3v1H14zM18 3h1v1H18zM10 7h1v1H10zM13 8h1v1H13zM12 11h4v1H12zM17 14h1v1H17zM9 16h6v1H9zM2 19h1v2H2zM4 19h18v1H4zM20 20h2v1H20zM3 21h2v1H3zM6 21h15v1H6z"/>
<path fill="#fbd023" d="M3 2h1v2H3zM13 2h1v5H13zM19 2h2v1H19zM4 3h1v1H4zM8 3h1v1H8zM15 4h1v1H15zM18 4h1v1H18zM21 6h1v3H21zM19 7h1v1H19zM3 9h1v1H3zM8 10h2v1H8zM18 10h1v1H18zM21 10h1v1H21zM5 11h3v1H5zM9 11h1v1H9zM5 13h2v1H5zM9 13h1v1H9zM2 14h1v1H2zM3 16h1v1H3zM15 16h1v1H15zM2 17h1v2H2zM21 17h1v1H21z"/>
<path fill="#fdda22" d="M4 2h9v1H4zM9 3h2v2H9zM3 4h2v1H3zM16 4h1v1H16zM21 4h1v2H21zM2 5h1v9H2zM5 5h3v1H5zM10 5h1v2H10zM12 5h1v1H12zM15 5h1v1H15zM19 5h2v1H19zM6 6h2v1H6zM20 7h1v1H20zM19 8h1v2H19zM21 9h1v1H21zM4 10h1v1H4zM8 11h1v1H8zM17 11h2v1H17zM21 11h1v4H21zM19 12h1v4H19zM20 14h1v2H20zM2 15h1v1H2zM5 16h1v1H5zM7 16h1v1H7zM16 16h2v1H16zM21 18h1v1H21z"/>
<path fill="#faa002" d="M14 2h1v1H14zM17 3h1v1H17zM9 7h1v3H9zM11 7h2v4H11zM10 8h1v4H10zM13 9h2v2H13zM11 11h1v1H11zM5 14h2v2H5zM18 14h1v1H18zM17 15h1v1H17zM3 20h17v1H3zM5 21h1v1H5z"/>
<path fill="#f2a920" d="M21 2h1v2H21zM2 3h1v1H2zM5 3h3v1H5zM19 3h2v1H19zM8 4h1v3H8zM13 7h1v1H13zM3 8h2v1H3zM5 10h3v1H5zM17 10h1v1H17zM16 11h1v1H16zM18 15h1v1H18zM8 16h1v1H8zM3 19h1v1H3z"/>
<path fill="#fddd20" d="M11 3h2v2H11zM2 4h1v1H2zM17 4h1v2H17zM11 5h1v2H11zM16 5h1v1H16zM18 5h1v2H18zM12 6h1v1H12zM19 6h2v1H19zM20 8h1v6H20zM4 9h1v1H4zM3 10h1v6H3zM19 10h1v2H19zM4 11h1v6H4zM5 12h5v1H5zM6 16h1v1H6zM18 16h2v1H18z"/>
<path fill="#f0cf63" d="M5 6h1v1H5zM7 13h2v1H7zM15 13h1v1H15zM10 15h2v1H10z"/>
<path fill="#feeb6d" d="M15 6h3v1H15zM12 15h3v1H12zM21 15h1v1H21zM20 16h1v3H20zM3 17h1v2H3zM4 18h5v1H4zM14 18h1v1H14zM17 18h3v1H17z"/>
<path fill="#8a3c15" d="M3 7h1v1H3zM5 7h3v1H5zM14 7h5v1H14zM5 8h1v1H5zM18 8h1v1H18zM11 12h1v1H11zM18 12h1v1H18zM1 16h1v6H1zM0 17h1v1H0zM22 17h2v1H22zM22 18h1v4H22z"/>
<path fill="#91482d" d="M4 7h1v1H4zM6 8h2v2H6zM16 8h2v2H16zM10 12h1v2H10zM17 12h1v1H17zM11 13h1v1H11zM7 14h3v1H7zM15 14h2v1H15zM0 18h1v4H0zM23 18h1v4H23zM2 23h20v1H2z"/>
<path fill="#fefccb" d="M12 12h5v1H12zM12 13h3v2H12zM16 13h1v1H16zM10 14h2v1H10zM2 16h1v1H2zM21 16h1v1H21zM4 17h16v1H4zM9 18h5v1H9zM15 18h2v1H15z"/>
</svg>
