<svg xmlns="http://www.w3.org/2000/svg" viewBox="0 0 24 24" shape-rendering="crispEdges">
<path fill="#b85e1b" d="M2 0h19v1H2zM0 2h1v1H0zM23 2h1v1H23zM0 3h1v1H0zM0 4h1v1H0zM0 5h1v1H0zM23 5h1v1H23zM0 6h1v1H0zM0 7h1v1H0zM0 8h1v1H0zM0 9h1v1H0zM0 10h1v1H0zM0 11h1v1H0zM23 11h1v1H23zM0 12h1v1H0zM23 12h1v1H23zM0 13h1v1H0zM23 13h1v1H23zM0 14h1v1H0zM0 15h1v1H0zM23 15h1v1H23z"/>
<path fill="#b95b19" d="M21 0h1v1H21zM2 1h20v1H2zM1 2h1v1H1zM22 2h1v1H22zM23 3h1v1H23zM23 4h1v1H23zM23 6h1v1H23zM23 7h1v1H23zM23 8h1v1H23zM23 9h1v1H23zM23 10h1v1H23zM23 14h1v1H23zM0 16h1v1H0zM23 16h1v1H23z"/>
<path fill="#fef8b6" d="M23 1h1v1H23zM2 16h1v1H2zM21 16h1v1H21zM3 17h17v1H3zM3 18h17v1H3zM0 22h1v1H0zM22 22h2v1H22z"/>
<path fill="#fba20c" d="M2 2h1v1H2zM21 2h1v1H21zM3 9h1v1H3zM19 9h2v1H19zM5 14h2v1H5zM17 14h2v1H17zM2 19h19v1H2zM2 20h19v1H2zM4 21h17v1H4z"/>
<path fill="#fadf1a" d="M3 2h17v1H3zM10 12h1v1H10zM3 16h1v1H3zM7 16h9v1H7zM19 16h1v1H19z"/>
<path fill="#efc623" d="M20 2h1v1H20zM4 8h1v1H4zM6 8h4v1H6zM14 8h4v1H14zM5 15h2v1H5zM18 15h1v1H18z"/>
<path fill="#9d4d17" d="M1 3h1v1H1zM22 3h1v1H22zM1 4h1v1H1zM22 4h1v1H22zM1 5h1v1H1zM22 5h1v1H22zM1 6h1v1H1zM22 6h1v1H22zM1 7h1v1H1zM22 7h1v1H22zM1 8h1v1H1zM22 8h1v1H22zM1 9h1v1H1zM22 9h1v1H22zM1 10h1v1H1zM22 10h1v1H22zM1 11h1v1H1zM22 11h1v1H22zM1 12h1v1H1zM22 12h1v1H22zM1 13h1v1H1zM22 13h1v1H22zM1 14h1v1H1zM13 14h2v1H13zM22 14h1v1H22zM1 15h1v1H1zM22 15h1v1H22zM22 16h1v1H22zM0 17h1v1H0zM22 21h1v1H22zM2 22h1v1H2zM21 22h1v1H21z"/>
<path fill="#ffda26" d="M2 3h1v1H2zM11 3h5v1H11zM21 3h1v1H21zM21 4h1v1H21zM21 5h1v1H21zM21 6h1v1H21zM7 7h2v1H7zM12 7h3v1H12zM21 7h1v1H21zM13 8h1v1H13zM21 8h1v1H21zM12 9h2v1H12zM21 9h1v1H21zM3 10h2v1H3zM12 10h1v1H12zM20 10h2v1H20zM4 11h3v1H4zM12 11h1v1H12zM21 11h1v1H21zM6 12h1v1H6zM21 12h1v1H21zM6 13h1v1H6zM21 13h1v1H21zM21 14h1v1H21zM19 15h1v1H19zM21 17h1v1H21zM2 18h1v1H2zM21 18h1v1H21z"/>
<path fill="#feda1e" d="M3 3h1v1H3zM5 3h6v1H5zM16 3h3v1H16zM20 3h1v1H20zM5 4h4v1H5zM15 4h3v1H15zM6 5h1v1H6zM6 6h1v1H6zM18 6h2v1H18zM5 7h2v1H5zM10 7h1v1H10zM15 7h3v1H15zM3 8h1v1H3zM11 8h1v1H11zM19 8h2v1H19zM10 9h1v1H10zM19 10h1v1H19zM3 11h1v1H3zM7 11h3v1H7zM14 11h6v1H14zM3 12h3v1H3zM7 12h3v1H7zM5 13h1v1H5zM18 13h1v1H18zM3 14h2v1H3zM20 14h1v1H20zM17 15h1v1H17zM4 16h3v1H4zM17 16h1v1H17z"/>
<path fill="#fedd26" d="M4 3h1v1H4zM2 4h1v1H2zM2 5h1v1H2zM2 6h1v1H2zM10 6h1v1H10zM2 7h1v1H2zM9 7h1v1H9zM20 7h1v1H20zM2 8h1v1H2zM12 8h1v1H12zM2 9h1v1H2zM2 10h1v1H2zM9 10h1v1H9zM13 10h2v1H13zM18 10h1v1H18zM2 11h1v1H2zM11 11h1v1H11zM2 12h1v1H2zM13 12h3v1H13zM2 13h1v1H2zM10 13h7v1H10zM2 14h1v1H2zM19 14h1v1H19zM20 15h1v1H20zM2 17h1v1H2z"/>
<path fill="#ffdd1e" d="M19 3h1v1H19zM3 4h2v1H3zM9 4h6v1H9zM18 4h3v1H18zM3 5h3v1H3zM7 5h14v1H7zM3 6h3v1H3zM7 6h3v1H7zM11 6h7v1H11zM20 6h1v1H20zM3 7h2v1H3zM11 7h1v1H11zM18 7h2v1H18zM10 8h1v1H10zM11 9h1v1H11zM10 10h2v1H10zM10 11h1v1H10zM13 11h1v1H13zM20 11h1v1H20zM11 12h2v1H11zM16 12h5v1H16zM3 13h2v1H3zM17 13h1v1H17zM19 13h2v1H19zM3 15h2v1H3zM16 16h1v1H16zM18 16h1v1H18z"/>
<path fill="#eca71a" d="M5 8h1v1H5zM18 8h1v1H18zM4 9h1v1H4zM7 15h10v1H7zM21 19h1v1H21zM21 20h1v1H21zM3 21h1v1H3z"/>
<path fill="#8e410b" d="M5 9h1v1H5zM18 9h1v1H18zM1 16h1v1H1zM1 17h1v1H1zM22 17h1v1H22zM1 18h1v1H1zM22 18h1v1H22zM1 19h1v1H1zM22 19h1v1H22zM1 20h1v1H1zM22 20h1v1H22zM1 21h1v1H1zM3 22h18v1H3z"/>
<path fill="#934a36" d="M6 9h4v1H6zM14 9h4v1H14zM7 14h6v1H7zM15 14h2v1H15zM23 17h1v1H23zM0 18h1v1H0zM23 18h1v1H23zM0 19h1v1H0zM23 19h1v1H23zM0 20h1v1H0zM23 20h1v1H23zM0 21h1v1H0zM23 21h1v1H23zM2 23h20v1H2z"/>
<path fill="#fde65e" d="M5 10h4v1H5zM15 10h3v1H15zM7 13h3v1H7zM2 15h1v1H2zM21 15h1v1H21zM20 16h1v1H20zM20 17h1v1H20zM20 18h1v1H20z"/>
<path fill="#d9821b" d="M2 21h1v1H2zM21 21h1v1H21z"/>
</svg>
