<svg xmlns="http://www.w3.org/2000/svg" viewBox="0 0 24 24" shape-rendering="crispEdges">
<path fill="#b25318" d="M2 0h2v2H2zM4 1h18v1H4zM0 4h1v4H0zM23 4h1v1H23zM22 6h1v1H22zM0 9h1v1H0zM23 11h1v1H23zM0 14h1v2H0zM1 21h1v1H1zM22 21h1v1H22z"/>
<path fill="#c8671f" d="M4 0h18v1H4zM22 2h2v1H22zM23 3h1v1H23zM8 4h1v1H8zM14 4h2v1H14zM4 5h1v1H4zM19 5h1v1H19zM23 5h1v6H23zM3 6h1v1H3zM21 11h2v1H21zM23 12h1v5H23zM5 14h1v1H5zM19 14h1v1H19zM0 16h1v1H0z"/>
<path fill="#f4d35f" d="M22 0h1v1H22zM10 7h1v2H10zM13 7h1v3H13zM5 10h2v1H5zM14 10h1v1H14zM5 18h5v1H5zM11 18h9v1H11z"/>
<path fill="#ad6415" d="M0 2h1v2H0zM4 3h4v1H4zM16 3h4v1H16zM1 5h3v1H1zM20 5h3v1H20zM20 6h1v1H20zM0 8h1v1H0zM0 10h1v4H0zM22 10h1v1H22zM1 17h1v4H1zM22 17h1v4H22z"/>
<path fill="#ca8918" d="M1 2h1v3H1zM8 3h2v1H8zM14 3h2v1H14zM20 3h1v2H20zM22 3h1v2H22zM9 4h1v1H9zM5 5h1v1H5zM7 5h1v1H7zM16 5h3v1H16zM4 6h1v1H4zM19 6h1v1H19zM1 7h1v10H1zM22 7h1v3H22zM21 10h1v1H21zM19 12h1v2H19zM22 12h1v5H22zM6 14h1v1H6zM7 15h1v1H7zM16 15h1v1H16zM2 21h1v1H2zM21 21h1v1H21z"/>
<path fill="#faa408" d="M2 2h1v1H2zM21 2h1v1H21zM10 5h4v1H10zM5 6h4v1H5zM14 6h1v1H14zM17 6h2v1H17zM20 10h1v1H20zM20 12h1v3H20zM19 15h1v1H19zM2 19h1v2H2zM4 19h1v1H4zM9 19h2v1H9zM14 19h2v1H14zM20 19h2v1H20zM3 20h1v1H3zM4 21h15v1H4z"/>
<path fill="#fcd421" d="M3 2h1v1H3zM20 2h1v1H20zM2 3h1v1H2zM12 3h2v1H12zM21 3h1v1H21zM10 4h1v1H10zM21 7h1v2H21zM3 9h1v1H3zM7 11h2v1H7zM15 11h2v1H15zM3 14h2v1H3zM19 16h1v1H19zM2 17h1v2H2zM21 18h1v1H21z"/>
<path fill="#fcdf28" d="M4 2h16v1H4zM10 3h2v1H10zM2 4h1v1H2zM11 4h1v1H11zM21 4h1v1H21zM2 7h1v1H2zM11 7h1v3H11zM4 9h1v2H4zM10 9h1v2H10zM13 10h1v1H13zM19 10h1v2H19zM17 11h1v1H17zM16 12h1v1H16zM21 12h1v2H21zM5 13h11v1H5zM2 14h1v1H2zM17 14h1v2H17zM3 15h2v1H3zM18 15h1v2H18zM20 15h1v1H20zM4 16h3v1H4zM12 16h2v1H12zM16 16h1v1H16zM21 17h1v1H21zM3 18h1v1H3zM20 18h1v1H20z"/>
<path fill="#efac34" d="M3 3h1v2H3zM13 4h1v1H13zM6 5h1v1H6zM20 11h1v1H20zM5 15h2v1H5zM8 15h8v1H8zM3 19h1v1H3zM5 19h4v1H5zM11 19h3v1H11zM16 19h4v1H16z"/>
<path fill="#8e431d" d="M4 4h3v1H4zM16 4h2v1H16zM21 6h1v1H21zM6 7h2v1H6zM16 7h2v1H16zM7 14h1v1H7zM0 21h1v1H0zM2 22h20v1H2z"/>
<path fill="#95472a" d="M7 4h1v1H7zM18 4h2v1H18zM1 6h2v1H1zM5 8h3v1H5zM16 8h2v2H16zM6 9h2v1H6zM8 14h8v1H8zM0 17h1v4H0zM23 17h1v5H23zM2 23h20v1H2z"/>
<path fill="#fedb23" d="M12 4h1v1H12zM12 7h1v6H12zM2 8h1v6H2zM20 9h2v1H20zM3 10h1v4H3zM11 10h1v3H11zM4 11h3v2H4zM9 11h2v2H9zM13 11h2v2H13zM18 11h1v1H18zM7 12h2v1H7zM15 12h1v1H15zM4 13h1v1H4zM18 14h1v1H18zM21 14h1v1H21zM7 16h5v1H7zM14 16h2v1H14zM17 16h1v1H17z"/>
<path fill="#f99807" d="M8 5h2v1H8zM14 5h2v1H14zM9 6h5v1H9zM15 6h2v1H15zM4 20h18v1H4zM3 21h1v1H3zM19 21h2v1H19z"/>
<path fill="#fef9c1" d="M3 7h2v1H3zM8 7h2v3H8zM14 7h2v3H14zM19 7h1v2H19zM4 8h1v1H4zM2 16h1v1H2zM21 16h1v1H21zM4 17h16v1H4z"/>
<path fill="#853a1c" d="M5 7h1v1H5zM18 7h1v3H18zM5 9h1v1H5zM17 12h2v2H17zM16 14h1v1H16z"/>
<path fill="#fbe15b" d="M20 7h1v2H20zM3 8h1v1H3zM19 9h1v1H19zM7 10h3v1H7zM15 10h4v1H15zM16 13h1v1H16zM2 15h1v1H2zM21 15h1v1H21zM3 16h1v2H3zM20 16h1v2H20zM4 18h1v1H4zM10 18h1v1H10z"/>
</svg>
