<svg xmlns="http://www.w3.org/2000/svg" viewBox="0 0 24 24" shape-rendering="crispEdges">
<path fill="#b55e2a" d="M12 0h3v1H12zM9 2h1v1H9zM16 2h1v1H16zM16 3h1v1H16zM7 4h1v1H7zM16 4h1v1H16zM16 6h1v1H16zM19 7h3v1H19zM13 9h1v1H13zM22 11h1v1H22zM14 12h3v1H14zM13 14h1v1H13zM10 20h1v1H10zM15 22h1v1H15z"/>
<path fill="#fcefab" d="M15 0h1v1H15zM10 1h1v1H10zM16 1h1v1H16zM8 2h1v1H8zM9 5h3v1H9zM9 6h3v1H9zM15 7h1v1H15zM15 8h1v1H15zM19 8h3v1H19zM20 9h1v1H20zM11 10h2v1H11zM19 10h2v1H19zM10 11h3v1H10zM19 11h2v1H19zM9 12h5v1H9zM9 13h5v1H9zM9 14h1v1H9zM8 19h1v1H8zM9 20h1v1H9zM19 20h2v1H19zM10 22h2v1H10zM17 22h2v1H17z"/>
<path fill="#fdfbfa" d="M8 1h1v1H8zM8 20h1v1H8z"/>
<path fill="#eab863" d="M9 1h1v1H9zM11 1h1v1H11zM15 1h1v1H15zM7 3h5v1H7z"/>
<path fill="#db7a24" d="M12 1h1v1H12zM14 1h1v1H14zM15 2h1v1H15zM15 3h1v1H15zM15 4h1v1H15zM7 10h2v1H7zM7 11h1v1H7zM7 12h2v1H7zM14 16h1v1H14zM14 17h1v1H14zM20 17h1v1H20zM14 18h1v1H14zM19 18h2v1H19zM10 19h1v1H10zM12 19h3v1H12zM14 20h1v1H14zM15 21h2v1H15z"/>
<path fill="#ec9414" d="M13 1h1v1H13zM12 5h1v1H12zM8 11h1v1H8zM7 13h2v1H7zM15 17h1v1H15zM18 17h2v1H18zM15 18h1v1H15zM18 18h1v1H18zM11 19h1v1H11zM15 19h1v1H15zM15 20h2v1H15z"/>
<path fill="#b55624" d="M10 2h2v1H10zM7 5h1v1H7zM16 5h1v1H16zM7 6h1v1H7zM12 8h2v1H12zM18 8h1v1H18zM17 9h1v1H17zM23 9h1v1H23zM23 10h1v1H23zM23 11h1v1H23zM15 13h2v1H15zM21 13h1v1H21zM12 14h1v1H12zM14 14h3v1H14zM21 14h1v1H21zM15 15h1v1H15zM21 15h1v1H21zM16 16h1v1H16zM21 16h1v1H21zM9 17h1v1H9zM21 17h1v1H21zM9 18h1v1H9zM21 18h1v1H21zM20 19h1v1H20zM11 20h1v1H11zM12 21h2v1H12zM14 22h1v1H14zM16 22h1v1H16z"/>
<path fill="#fce440" d="M12 2h3v1H12zM12 3h3v1H12zM12 4h3v1H12zM9 7h3v1H9zM9 8h3v1H9zM9 9h3v1H9zM18 10h1v1H18zM17 11h2v1H17zM17 12h3v1H17zM17 13h3v1H17zM7 14h1v1H7zM10 14h2v1H10zM17 14h3v1H17zM7 15h2v1H7zM11 15h1v1H11zM19 15h1v1H19zM7 16h3v1H7z"/>
<path fill="#b46a2a" d="M8 4h1v1H8zM8 5h1v1H8zM8 6h1v1H8zM8 7h1v1H8zM8 8h1v1H8zM17 8h1v1H17zM22 8h2v1H22zM8 9h1v1H8zM22 9h1v1H22zM5 10h1v1H5zM22 10h1v1H22zM5 11h1v1H5zM5 12h1v1H5zM21 12h1v1H21zM5 13h1v1H5zM14 13h1v1H14zM5 14h1v1H5zM5 15h1v1H5zM5 16h1v1H5zM18 20h1v1H18z"/>
<path fill="#fefabb" d="M9 4h3v1H9zM15 9h1v1H15zM19 9h1v1H19zM21 9h1v1H21zM13 10h1v1H13zM21 10h1v1H21zM13 11h1v1H13zM21 11h1v1H21z"/>
<path fill="#f3a015" d="M13 5h2v1H13zM12 6h3v1H12zM12 7h2v1H12zM9 10h1v1H9zM9 11h1v1H9zM10 15h1v1H10zM17 15h2v1H17zM10 16h4v1H10zM17 16h4v1H17zM10 17h4v1H10zM16 17h2v1H16zM10 18h4v1H10zM16 18h2v1H16zM16 19h3v1H16z"/>
<path fill="#cc6b1f" d="M15 5h1v1H15zM15 6h1v1H15zM12 15h3v1H12zM16 15h1v1H16zM15 16h1v1H15zM12 20h2v1H12zM17 20h1v1H17zM14 21h1v1H14z"/>
<path fill="#9b5135" d="M7 7h1v1H7zM14 7h1v1H14zM7 8h1v1H7zM14 8h1v1H14zM7 9h1v1H7zM12 9h1v1H12zM14 9h1v1H14zM18 9h1v1H18zM6 10h1v1H6zM14 10h3v1H14zM6 11h1v1H6zM14 11h3v1H14zM6 12h1v1H6zM6 13h1v1H6zM6 14h1v1H6zM6 15h1v1H6zM6 16h1v1H6zM7 17h2v1H7zM7 18h2v1H7zM9 19h1v1H9zM19 19h1v1H19zM10 21h2v1H10zM17 21h2v1H17zM12 22h2v1H12zM12 23h5v1H12z"/>
<path fill="#f5d761" d="M10 10h1v1H10zM17 10h1v1H17zM20 12h1v1H20zM20 13h1v1H20zM8 14h1v1H8zM20 14h1v1H20zM9 15h1v1H9zM20 15h1v1H20z"/>
</svg>
